# xmcd CD database file generated by OrangeCD 6.3
#
# Track frame offsets:
#	150
#	13380
#	24942
#	35637
#	53742
#	66860
#	80122
#	94325
#	110085
#	120202
#	132985
#	147160
#	166670
#	177317
#
# Disc length: 2617 seconds
#
# Revision: 1
# Processed by: cddbd v1.5.2PL0 Copyright (c) Steve Scherf et al.
# Submitted via: OrangeCD 6.3
#
DISCID=be0a370e
DTITLE=Johnny Shines - Ramblin' Blues
DYEAR=1996
DGENRE=Chicago Blues
TTITLE0=Ramblin' Blues
TTITLE1=Delta Pine
TTITLE2=Dynaflow Blues
TTITLE3=Milk Cow Blues
TTITLE4=Look Behind The Door
TTITLE5=Little Wolf
TTITLE6=Arguing And Boodling
TTITLE7=Lost Love Letter Blues
TTITLE8=I'm Getting Old
TTITLE9=Blood Ran Like Wine
TTITLE10=Mr. Cover Shaker
TTITLE11=Glad Rags
TTITLE12=Shotgun Whupin'
TTITLE13=Two Steps To Hell
EXTD=
EXTT0=
EXTT1=
EXTT2=
EXTT3=
EXTT4=
EXTT5=
EXTT6=
EXTT7=
EXTT8=
EXTT9=
EXTT10=
EXTT11=
EXTT12=
EXTT13=
PLAYORDER=
